<?xml version="1.0" encoding="UTF-8" standalone="no"?>
<!-- Created with Inkscape (http://www.inkscape.org/) -->

<svg
   xmlns:dc="http://purl.org/dc/elements/1.1/"
   xmlns:cc="http://creativecommons.org/ns#"
   xmlns:rdf="http://www.w3.org/1999/02/22-rdf-syntax-ns#"
   xmlns:svg="http://www.w3.org/2000/svg"
   xmlns="http://www.w3.org/2000/svg"
   xmlns:sodipodi="http://sodipodi.sourceforge.net/DTD/sodipodi-0.dtd"
   xmlns:inkscape="http://www.inkscape.org/namespaces/inkscape"
   id="svg2948"
   version="1.1"
   inkscape:version="0.47 r22583"
   width="547.59052"
   height="624.5"
   sodipodi:docname="M.svg">
  <metadata
     id="metadata2954">
    <rdf:RDF>
      <cc:Work
         rdf:about="">
        <dc:format>image/svg+xml</dc:format>
        <dc:type
           rdf:resource="http://purl.org/dc/dcmitype/StillImage" />
        <dc:title></dc:title>
      </cc:Work>
    </rdf:RDF>
  </metadata>
  <defs
     id="defs2952">
    <inkscape:perspective
       sodipodi:type="inkscape:persp3d"
       inkscape:vp_x="0 : 0.5 : 1"
       inkscape:vp_y="0 : 1000 : 0"
       inkscape:vp_z="1 : 0.5 : 1"
       inkscape:persp3d-origin="0.5 : 0.33333333 : 1"
       id="perspective2956" />
  </defs>
  <sodipodi:namedview
     pagecolor="#ffffff"
     bordercolor="#666666"
     borderopacity="1"
     objecttolerance="10"
     gridtolerance="10"
     guidetolerance="10"
     inkscape:pageopacity="0"
     inkscape:pageshadow="2"
     inkscape:window-width="1280"
     inkscape:window-height="752"
     id="namedview2950"
     showgrid="false"
     inkscape:zoom="0.13174432"
     inkscape:cx="267.31107"
     inkscape:cy="306.02999"
     inkscape:window-x="0"
     inkscape:window-y="0"
     inkscape:window-maximized="0"
     inkscape:current-layer="svg2948" />
  <path
     style="fill:#000000;fill-opacity:1;stroke:none"
     d="m 283.0004,623.6418 c 0,-0.4721 1.125,-0.5761 2.5,-0.231 1.558,0.3911 2.5,0.2032 2.5,-0.4985 0,-0.6194 0.675,-0.8671 1.5,-0.5505 0.825,0.3166 1.5,0.092 1.5,-0.5 0,-0.5916 0.675,-0.8166 1.5,-0.5 0.825,0.3166 1.5,0.092 1.5,-0.5 0,-0.5916 0.675,-0.8166 1.5,-0.5 0.825,0.3166 1.5,0.1132 1.5,-0.452 0,-0.5652 0.45,-0.7495 1,-0.4096 0.55,0.3399 1,0.1149 1,-0.5 0,-0.6149 0.45,-0.8399 1,-0.5 0.55,0.3399 1,0.1149 1,-0.5 0,-0.6149 0.45,-0.8399 1,-0.5 0.55,0.3399 1,0.066 1,-0.6076 0,-0.6742 0.293,-0.9327 0.6511,-0.5746 0.3581,0.3581 1.2915,-0.1294 2.0742,-1.0833 0.9234,-1.1256 1.1829,-1.2079 0.7391,-0.2345 -0.3761,0.825 0.523,0.15 1.9982,-1.5 1.4751,-1.65 2.3751,-2.325 2,-1.5 -0.3752,0.825 0.5248,0.15 2,-1.5 1.4751,-1.65 2.3874,-2.325 2.0273,-1.5 -0.3601,0.825 1.2393,-0.525 3.5542,-3 2.315,-2.475 3.6455,-3.6 2.9567,-2.5 -0.6888,1.1 1.1109,-0.475 3.9992,-3.5 2.8883,-3.025 4.6402,-4.6 3.893,-3.5 -1.3404,1.9732 -1.329,1.9748 0.8507,0.1164 1.215,-1.0361 1.9682,-2.2736 1.6737,-2.75 -0.2945,-0.4765 -0.052,-0.8664 0.5378,-0.8664 0.7588,0 0.8749,-14.2069 0.3963,-48.5 -0.5469,-39.1848 -0.4302,-48.5 0.6079,-48.5 1.0406,0 1.1433,-11.971 0.5406,-63 -0.5903,-49.9736 -0.4869,-63 0.5,-63 0.9869,0 1.0903,-13.0264 0.5,-63 -0.598,-50.6304 -0.4949,-63 0.525,-63 1.0191,0 1.125,-11.0298 0.5374,-55.9868 -0.6466,-49.4723 -0.5544,-56.164 0.7922,-57.5106 1.3263,-1.3264 7.1082,-1.4901 44.5991,-1.2633 l 43.0753,0.2607 -0.022,134.75 c -0.016,102.2628 0.2606,134.75 1.1489,134.75 0.8882,0 1.0076,13.8655 0.495,57.5 -0.5085,43.2924 -0.3892,57.5 0.4828,57.5 0.8652,0 0.9764,5.946 0.4395,23.5 -0.5567,18.2043 -0.4441,23.5 0.5,23.5 0.9303,0 1.0543,2.9581 0.5241,12.5 -0.5197,9.3545 -0.3965,12.5 0.4898,12.5 0.8284,0 0.999,1.3526 0.5676,4.5 -0.3898,2.8438 -0.2341,4.5 0.423,4.5 0.572,0 0.7618,0.45 0.4219,1 -0.3399,0.55 -0.066,1 0.6076,1 0.6742,0 0.9327,0.293 0.5746,0.6511 -0.3581,0.3581 0.1294,1.2915 1.0833,2.0742 0.954,0.7826 1.0994,1.0932 0.3231,0.6901 -0.7763,-0.4031 1.0237,1.6142 4,4.483 2.9763,2.8687 5.6364,5.258 5.9114,5.3095 0.275,0.051 1.0959,0.8133 1.8242,1.6929 1.0448,1.2619 1.1874,1.2828 0.6758,0.099 -0.3566,-0.825 0.06,-0.6265 0.9258,0.4411 0.8658,1.0677 1.5879,1.5177 1.6046,1 0.017,-0.5176 0.4786,-0.1723 1.0265,0.7674 0.5493,0.9423 1.6568,1.4549 2.4695,1.143 0.8105,-0.311 1.4736,-0.041 1.4736,0.6005 0,0.6413 0.45,0.8879 1,0.548 0.55,-0.3399 1,-0.1556 1,0.4096 0,0.5652 0.675,0.7686 1.5,0.452 0.825,-0.3166 1.5,-0.051 1.5,0.5904 0,0.6413 0.45,0.8879 1,0.548 0.55,-0.3399 1,-0.093 1,0.548 0,0.6413 0.675,0.907 1.5,0.5904 0.825,-0.3166 1.5,-0.1094 1.5,0.4604 0,0.5809 0.8785,0.7571 2,0.4012 1.1979,-0.3802 2,-0.1797 2,0.5 0,0.6797 0.8021,0.8802 2,0.5 1.1269,-0.3577 2,-0.1797 2,0.4076 0,0.6249 1.2016,0.8021 3,0.4424 1.65,-0.33 2.9999,-0.2063 2.9997,0.275 -1e-4,0.4812 5.3996,0.875 11.9993,0.875 6.5998,0 11.9999,-0.3863 12.0003,-0.8584 4e-4,-0.4721 1.1257,-0.5761 2.5007,-0.231 1.558,0.3911 2.5,0.2032 2.5,-0.4985 0,-0.6194 0.675,-0.8671 1.5,-0.5505 0.825,0.3166 1.5,0.092 1.5,-0.5 0,-0.5916 0.675,-0.8166 1.5,-0.5 0.825,0.3166 1.5,0.1539 1.5,-0.3616 0,-0.5155 0.675,-0.6782 1.5,-0.3616 0.825,0.3166 1.5,0.051 1.5,-0.5904 0,-0.6413 0.45,-0.8879 1,-0.548 0.55,0.3399 1,0.1149 1,-0.5 0,-0.6149 0.4223,-0.857 0.9385,-0.538 0.5162,0.319 1.4026,-0.2169 1.9696,-1.191 0.5671,-0.974 1.0448,-1.3475 1.0615,-0.8299 0.017,0.5177 0.7388,0.068 1.6046,-1 0.8657,-1.0676 1.2245,-1.2661 0.7971,-0.4411 -0.4273,0.825 1.5619,-0.75 4.4205,-3.5 5.1253,-4.9307 6.4486,-6.5792 3.9111,-4.8724 -0.7135,0.4798 -0.5076,0.1408 0.4574,-0.7535 0.9651,-0.8942 1.4738,-1.9067 1.1305,-2.25 -0.3433,-0.3432 -0.073,-0.6241 0.6016,-0.6241 0.6741,0 0.9475,-0.45 0.6076,-1 -0.3399,-0.55 -0.1149,-1 0.5,-1 0.6149,0 0.8399,-0.45 0.5,-1 -0.3399,-0.55 -0.1556,-1 0.4096,-1 0.5652,0 0.7403,-0.7488 0.3891,-1.664 -0.4265,-1.1114 -0.2538,-1.4263 0.5199,-0.9481 0.7569,0.4678 0.952,0.178 0.563,-0.836 -0.3276,-0.8535 -0.1116,-1.5519 0.48,-1.5519 0.5916,0 0.8166,-0.675 0.5,-1.5 -0.3166,-0.825 -0.069,-1.5 0.5505,-1.5 0.7017,0 0.8896,-0.942 0.4985,-2.5 -0.4028,-1.605 -0.2065,-2.5 0.5484,-2.5 0.7207,0 0.9301,-0.7741 0.541,-2 -0.3802,-1.1979 -0.1797,-2 0.5,-2 0.6797,0 0.8802,-0.8021 0.5,-2 -0.3671,-1.1566 -0.1797,-2 0.4444,-2 0.699,0 0.8539,-1.4092 0.4396,-4 -0.4516,-2.8239 -0.2822,-4 0.5761,-4 0.8643,0 1.0203,-1.1563 0.5399,-4 -0.4768,-2.8221 -0.322,-4 0.5256,-4 0.8573,0 1.0082,-1.2892 0.5267,-4.5 -0.4722,-3.149 -0.3243,-4.5 0.4926,-4.5 0.8562,0 0.9775,-2.3994 0.4551,-9 -0.5284,-6.6759 -0.406,-9 0.474,-9 0.8832,0 1.0052,-2.5546 0.4773,-10 -0.5403,-7.6216 -0.4169,-10 0.5188,-10 0.9556,0 1.0658,-4.9874 0.4969,-22.5 -0.437,-13.4547 -0.3633,-22.5 0.1832,-22.5 0.5467,0 0.9244,-47.422 0.9398,-118 0.016,-75.0626 -0.325,-118 -0.9381,-118 -0.6103,0 -0.7103,-8.252 -0.2725,-22.5 0.5256,-17.1089 0.4063,-22.5 -0.4981,-22.5 -0.8919,0 -1.0248,-3.2514 -0.5314,-13 0.4668,-9.2233 0.3368,-13 -0.4475,-13 -0.7689,0 -0.8914,-2.131 -0.4024,-7 0.5199,-5.177 0.3897,-7 -0.5,-7 -0.8897,0 -1.0199,-1.823 -0.5,-7 0.5159,-5.1371 0.3865,-7 -0.4864,-7 -0.8336,0 -0.9872,-1.1966 -0.5136,-4 0.458,-2.711 0.3106,-4 -0.4574,-4 -0.7535,0 -0.9132,-1.1728 -0.4766,-3.5 0.4429,-2.3611 0.2802,-3.5 -0.5,-3.5 -0.7803,0 -0.943,-1.1389 -0.5,-3.5 0.4517,-2.4081 0.2851,-3.5 -0.5342,-3.5 -0.8028,0 -0.976,-0.9774 -0.5318,-3 0.4332,-1.9724 0.2661,-3 -0.4879,-3 -0.6918,0 -0.895,-0.7936 -0.5121,-2 0.3888,-1.225 0.1797,-2 -0.5396,-2 -0.6459,0 -0.9154,-0.675 -0.5988,-1.5 0.3166,-0.825 0.1094,-1.5 -0.4604,-1.5 -0.5809,0 -0.7571,-0.8785 -0.4012,-2 0.3802,-1.1979 0.1797,-2 -0.5,-2 -0.6797,0 -0.8802,-0.8021 -0.5,-2 0.3559,-1.1215 0.1797,-2 -0.4012,-2 -0.5698,0 -0.777,-0.675 -0.4604,-1.5 0.3168,-0.8257 0.03,-1.5 -0.6384,-1.5 -0.6682,0 -0.9552,-0.6743 -0.6384,-1.5 0.3166,-0.825 0.1132,-1.5 -0.452,-1.5 -0.5652,0 -0.7495,-0.45 -0.4096,-1 0.3399,-0.55 0.1149,-1 -0.5,-1 -0.6149,0 -0.8399,-0.45 -0.5,-1 0.3399,-0.55 0.1556,-1 -0.4096,-1 -0.5652,0 -0.7403,-0.7488 -0.3891,-1.664 0.4005,-1.0436 0.2414,-1.4186 -0.4266,-1.0058 -1.2716,0.7859 -2.5622,-2.056 -1.6234,-3.575 0.3617,-0.5853 0.204,-0.7838 -0.3506,-0.4411 -0.5545,0.3428 -1.5275,-0.5164 -2.1621,-1.9092 -0.9109,-1.9992 -0.8891,-2.3954 0.1038,-1.8818 C 526.9341,70.8808 526.375,70.1955 525,69 c -1.375,-1.1955 -1.825,-1.877 -1,-1.5144 0.825,0.3625 0.15,-0.5479 -1.5,-2.023 -1.65,-1.4752 -2.325,-2.3583 -1.5,-1.9626 0.825,0.3957 0.15,-0.4874 -1.5,-1.9626 -1.65,-1.4751 -2.3515,-2.3448 -1.559,-1.9327 0.7926,0.4122 -3.0571,-3.7177 -8.5547,-9.1776 -6.2105,-6.1679 -7.1349,-7.2763 -2.441,-2.9271 l 7.5547,7 -7.419,-7.6937 c -4.0805,-4.2315 -7.7921,-7.6065 -8.248,-7.5 -0.4559,0.1066 -2.4375,-1.6063 -4.4034,-3.8063 -1.966,-2.2 -3.2844,-3.325 -2.9297,-2.5 0.3546,0.825 -0.5622,0.15 -2.0373,-1.5 -1.4752,-1.65 -2.3743,-2.325 -1.9982,-1.5 0.3762,0.825 -0.044,0.6 -0.9333,-0.5 -0.8895,-1.1 -2.0285,-2 -2.5311,-2 -0.5026,0 -1.6416,-0.9 -2.5311,-2 -0.8895,-1.1 -1.3198,-1.325 -0.9563,-0.5 0.3635,0.825 -0.3171,0.375 -1.5126,-1 -1.1955,-1.375 -1.8808,-1.9341 -1.5231,-1.2424 0.5136,0.9929 0.1174,1.0147 -1.8818,0.1038 -1.3928,-0.6346 -2.2981,-1.5329 -2.0118,-1.9962 0.2863,-0.4632 -0.2516,-0.546 -1.1954,-0.1838 -1.1564,0.4438 -1.4825,0.2807 -1,-0.5 0.4825,-0.7807 0.1564,-0.9438 -1,-0.5 -1.1564,0.4438 -1.4825,0.2807 -1,-0.5 0.4825,-0.7807 0.1564,-0.9438 -1,-0.5 -1.2564,0.4821 -1.4968,0.3037 -0.8974,-0.666 0.5198,-0.8411 0.4302,-1.0844 -0.2457,-0.6667 -1.519,0.9388 -4.3609,-0.3518 -3.575,-1.6234 0.4128,-0.668 0.038,-0.8271 -1.0058,-0.4266 -0.9164,0.3517 -1.664,0.1553 -1.664,-0.4371 0,-0.5916 -0.675,-0.8166 -1.5,-0.5 -0.825,0.3166 -1.5,0.092 -1.5,-0.5 0,-0.5916 -0.675,-0.8166 -1.5,-0.5 -0.825,0.3166 -1.5,0.092 -1.5,-0.5 0,-0.5916 -0.675,-0.8166 -1.5,-0.5 -0.825,0.3166 -1.5,0.092 -1.5,-0.5 0,-0.5916 -0.675,-0.8166 -1.5,-0.5 -0.825,0.3166 -1.5,0.1094 -1.5,-0.4604 0,-0.5809 -0.8785,-0.7571 -2,-0.4012 -1.2259,0.3891 -2,0.1797 -2,-0.541 0,-0.7549 -0.895,-0.9512 -2.5,-0.5484 C 440.9697,9.7947 440,9.612 440,8.9396 440,8.2393 438.9126,8.0799 437,8.5 435.0874,8.9201 434,8.7607 434,8.0604 434,7.388 433.0303,7.2053 431.5,7.5894 429.9154,7.9871 429,7.7944 429,7.0631 429,6.2862 427.857,6.1238 425.5,6.566 423.1166,7.0131 422,6.8485 422,6.05 422,5.227 420.6585,5.0786 417.5,5.5523 414.2788,6.0353 413,5.884 413,5.0197 413,4.1458 411.6189,4.0023 408,4.5 c -3.4268,0.4713 -5,0.3361 -5,-0.4296 0,-0.7854 -2.3756,-0.9191 -8,-0.45 -6.0943,0.5082 -8,0.369 -8,-0.5845 C 387,2.0694 384.7216,1.9473 377,2.5 369.9126,3.0073 367,2.8926 367,2.1064 367,1.3022 357.2322,1.1795 331.5,1.6605 304.82,2.1591 296,2.0353 296,1.162 296,0.3145 290.0446,0 274,0 c -16.0462,0 -22,0.3145 -22,1.1621 0,0.8736 -8.9402,0.9985 -36,0.503 -26.0091,-0.4762 -36,-0.3525 -36,0.4458 0,0.7805 -2.9353,0.8947 -10,0.3891 -7.663,-0.5485 -10,-0.4267 -10,0.5213 0,0.9377 -1.9354,1.0681 -8,0.5391 -5.8824,-0.5131 -8,-0.3849 -8,0.4844 0,0.8345 -1.3236,0.9838 -4.5,0.5075 -3.1256,-0.4687 -4.5,-0.3221 -4.5,0.4803 0,0.8111 -1.4888,0.9503 -5,0.4674 -3.6145,-0.4971 -5,-0.3537 -5,0.5175 0,0.8356 -1.0729,1.0038 -3.5,0.5485 -2.357,-0.4422 -3.5,-0.2798 -3.5,0.4971 0,0.7313 -0.9154,0.924 -2.5,0.5263 -1.5594,-0.3914 -2.5,-0.2033 -2.5,0.5 0,0.7032 -0.9406,0.8913 -2.5,0.5 -1.5594,-0.3914 -2.5,-0.2033 -2.5,0.5 0,0.7032 -0.9406,0.8913 -2.5,0.5 -1.5594,-0.3914 -2.5,-0.2033 -2.5,0.5 0,0.7032 -0.9406,0.8913 -2.5,0.5 -1.4027,-0.3521 -2.5,-0.194 -2.5,0.3602 0,0.5432 -0.675,0.7286 -1.5,0.412 -0.825,-0.3166 -1.5,-0.092 -1.5,0.5 0,0.5916 -0.675,0.8166 -1.5,0.5 -0.825,-0.3166 -1.5,-0.092 -1.5,0.5 0,0.5916 -0.675,0.8166 -1.5,0.5 -0.825,-0.3166 -1.5,-0.051 -1.5,0.5904 0,0.6413 -0.45,0.8879 -1,0.548 -0.55,-0.3399 -1,-0.093 -1,0.548 0,0.6413 -0.675,0.907 -1.5,0.5904 -0.825,-0.3166 -1.5,-0.092 -1.5,0.5 0,0.5916 -0.675,0.8166 -1.5,0.5 -0.825,-0.3166 -1.5,-0.065 -1.5,0.5597 0,0.6244 -0.2625,0.8727 -0.5833,0.5519 -0.3209,-0.3208 -1.4623,0.2956 -2.5365,1.3698 C 76.806,20.194 75.4935,20.805 74.9635,20.4775 74.4336,20.1499 74,20.3855 74,21 c 0,0.6149 -0.45,0.8399 -1,0.5 -0.55,-0.3399 -1,-0.066 -1,0.6076 0,0.6742 -0.293,0.9327 -0.6511,0.5746 -0.3581,-0.3581 -1.158,0.042 -1.7774,0.8892 -0.6195,0.8471 -1.8681,1.6491 -2.7748,1.7822 -0.9068,0.1331 -2.6162,1.3454 -3.7988,2.6942 C 61.8152,29.3965 61.1448,29.825 61.508,29 61.8712,28.175 60.7426,29.075 59,31 c -1.7426,1.925 -2.8575,2.825 -2.4775,2 0.38,-0.825 -1.4946,0.905 -4.1658,3.8445 C 49.6855,39.784 45.025,44.4531 42,47.2203 c -3.025,2.7672 -4.6,4.4615 -3.5,3.7652 1.1,-0.6963 -0.25,0.8744 -3,3.4904 -2.75,2.616 -4.1,4.2043 -3,3.5295 1.1,-0.6747 0.442,0.173 -1.4622,1.8839 C 29.1336,61.6002 27.9821,63 28.4789,63 c 0.4968,0 0.03,0.6607 -1.0378,1.4682 -1.0676,0.8075 -1.5176,1.4825 -1,1.5 0.5177,0.018 0.068,0.7402 -1,1.606 -1.0676,0.8657 -1.2661,1.2767 -0.4411,0.9132 0.825,-0.3635 0.375,0.3171 -1,1.5126 -1.375,1.1955 -1.825,1.8761 -1,1.5126 0.9915,-0.4369 0.9121,-0.1785 -0.2345,0.7621 -0.9539,0.7827 -1.4414,1.7161 -1.0833,2.0742 0.3581,0.3581 0.1,0.6511 -0.5746,0.6511 -0.6741,0 -0.9475,0.45 -0.6076,1 0.3399,0.55 0.1149,1 -0.5,1 -0.6149,0 -0.8399,0.45 -0.5,1 0.3399,0.55 0.1149,1 -0.5,1 -0.6149,0 -0.8399,0.45 -0.5,1 0.3399,0.55 0.1556,1 -0.4096,1 -0.5652,0 -0.7686,0.675 -0.452,1.5 0.3166,0.825 0.051,1.5 -0.5904,1.5 -0.6413,0 -0.8879,0.45 -0.548,1 0.3399,0.55 0.1556,1 -0.4096,1 -0.5652,0 -0.7403,0.7488 -0.3891,1.664 C 16.168,88.8801 15.9791,89.1051 15,88.5 14.0209,87.8949 13.832,88.1199 14.2987,89.336 14.6504,90.2524 14.454,91 13.8616,91 c -0.5916,0 -0.8166,0.675 -0.5,1.5 0.3166,0.825 0.1094,1.5 -0.4604,1.5 -0.5809,0 -0.7571,0.8785 -0.4012,2 0.3802,1.1979 0.1797,2 -0.5,2 -0.6797,0 -0.8802,0.8021 -0.5,2 0.3802,1.1979 0.1797,2 -0.5,2 -0.6797,0 -0.8802,0.8021 -0.5,2 0.3891,1.2259 0.1797,2 -0.541,2 -0.7549,0 -0.9512,0.895 -0.5484,2.5 0.3541,1.4108 0.1944,2.5 -0.3665,2.5 -0.5712,0 -0.7389,1.2762 -0.3941,3 0.4028,2.0142 0.2014,3 -0.6129,3 -0.861,0 -1.0168,1.1605 -0.5371,4 0.458,2.711 0.3106,4 -0.4574,4 -0.7535,0 -0.9132,1.1728 -0.4766,3.5 0.4538,2.4193 0.2863,3.5 -0.5426,3.5 -0.845,0 -0.9996,1.1814 -0.5234,4 0.4743,2.8075 0.3204,4 -0.5162,4 -0.8823,0 -1.008,2.0783 -0.4838,8 0.5329,6.0205 0.4059,8 -0.5134,8 -0.916,0 -1.0458,1.8762 -0.5188,7.5 0.5054,5.3935 0.3798,7.5 -0.4473,7.5 -0.8479,0 -0.9639,4.0733 -0.4413,15.5 C 3.0845,197.5471 2.9717,202 2.1867,202 1.3955,202 1.2591,210.5879 1.7024,232.5 2.1642,255.3223 2.0276,263 1.1598,263 0.2887,263 0,285.4017 0,353 c 0,67.6702 0.2881,90 1.1614,90 0.8707,0 0.998,7.6335 0.5088,30.5 C 1.1868,496.0952 1.314,504 2.161,504 c 0.8347,0 0.9604,3.6438 0.4657,13.5 -0.4907,9.7788 -0.3656,13.5 0.4541,13.5 0.811,0 0.9297,2.5495 0.4192,9 -0.5429,6.8595 -0.4186,9 0.5227,9 0.9037,0 1.0571,1.341 0.5717,5 -0.4459,3.3614 -0.3042,5 0.4324,5 0.732,0 0.8717,1.494 0.4209,4.5 -0.4815,3.2108 -0.3306,4.5 0.5267,4.5 0.8476,0 1.0024,1.1779 0.5256,4 -0.4643,2.7484 -0.3143,4 0.4795,4 0.7002,0 0.9052,0.7878 0.5205,2 -0.3689,1.1623 -0.1797,2 0.4517,2 0.6595,0 0.8398,0.9824 0.4589,2.5 -0.4028,1.605 -0.2065,2.5 0.5484,2.5 0.7207,0 0.9301,0.7741 0.541,2 -0.3802,1.1979 -0.1797,2 0.5,2 0.6797,0 0.8802,0.8021 0.5,2 -0.3783,1.192 -0.1797,2 0.4916,2 0.6196,0 0.8483,0.45 0.5084,1 -0.3399,0.55 -0.1149,1 0.5,1 0.6149,0 0.8399,0.45 0.5,1 -0.3399,0.55 -0.1556,1 0.4096,1 0.5652,0 0.7403,0.7488 0.3891,1.664 -0.4667,1.2161 -0.2778,1.4411 0.7013,0.836 0.9791,-0.6051 1.168,-0.3801 0.7013,0.836 -0.3512,0.9152 -0.2027,1.664 0.3301,1.664 0.5327,0 0.8561,0.3905 0.7186,0.8678 -0.1375,0.4772 0.6712,1.7147 1.7971,2.75 1.126,1.0352 1.351,1.4702 0.5,0.9667 -0.8509,-0.5035 0.2529,0.8351 2.4529,2.9747 2.2,2.1395 4.3181,3.9015 4.707,3.9155 0.3888,0.014 1.4346,0.9253 2.3241,2.0253 0.8895,1.1 1.3255,1.325 0.9689,0.5 -0.4326,-1.0009 -0.1748,-0.9229 0.7747,0.2345 0.7827,0.9539 1.7161,1.4414 2.0742,1.0833 0.3581,-0.3581 0.6511,-0.1 0.6511,0.5746 0,0.6741 0.45,0.9475 1,0.6076 0.55,-0.3399 1,-0.1556 1,0.4096 0,0.5652 0.7488,0.7403 1.664,0.3891 1.2161,-0.4667 1.4411,-0.2778 0.836,0.7013 -0.6051,0.9791 -0.3801,1.168 0.836,0.7013 C 38.2512,620.3501 39,620.4845 39,621 c 0,0.5155 0.675,0.6782 1.5,0.3616 0.8263,-0.317 1.5,-0.03 1.5,0.6398 0,0.7971 0.8605,0.9995 2.5,0.588 1.375,-0.3451 2.5003,-0.2814 2.5007,0.1415 4e-4,0.423 5.4005,0.7691 12.0003,0.7691 6.5997,0 11.9994,-0.3876 11.9993,-0.8613 -2e-4,-0.4737 1.5747,-0.5658 3.4997,-0.2047 2.2964,0.4308 3.5,0.274 3.5,-0.4561 0,-0.6576 0.818,-0.8531 2,-0.4779 1.1979,0.3802 2,0.1797 2,-0.5 0,-0.6797 0.8021,-0.8802 2,-0.5 1.1215,0.3559 2,0.1797 2,-0.4012 0,-0.5698 0.675,-0.777 1.5,-0.4604 0.825,0.3166 1.5,0.051 1.5,-0.5904 0,-0.6413 0.45,-0.8879 1,-0.548 0.55,0.3399 1,0.1556 1,-0.4096 0,-0.5652 0.675,-0.7686 1.5,-0.452 0.825,0.3166 1.5,0.051 1.5,-0.5904 0,-0.6413 0.45,-0.8879 1,-0.548 0.55,0.3399 1,0.1149 1,-0.5 0,-0.6149 0.45,-0.8399 1,-0.5 0.55,0.3399 1,0.1149 1,-0.5 0,-0.6149 0.45,-0.8399 1,-0.5 0.55,0.3399 1,0.066 1,-0.6076 0,-0.6742 0.293,-0.9327 0.6511,-0.5746 0.3581,0.3581 1.2915,-0.1294 2.0742,-1.0833 0.9495,-1.1574 1.2073,-1.2354 0.7747,-0.2345 -0.3566,0.825 0.079,0.6 0.9689,-0.5 0.8895,-1.1 1.871,-2 2.1813,-2 0.9938,0 10.0593,-9.4572 9.5519,-9.9646 -0.2686,-0.2686 0.2485,-0.7711 1.149,-1.1166 0.9006,-0.3456 1.3884,-1.0312 1.0841,-1.5236 -0.3043,-0.4924 -0.088,-0.8952 0.4808,-0.8952 0.6156,0 0.7912,-1.214 0.434,-3 -0.39,-1.9499 -0.1952,-3 0.5566,-3 0.845,0 0.9737,-2.8278 0.4777,-10.5 -0.5125,-7.9268 -0.3821,-10.5 0.5322,-10.5 0.9318,0 1.0469,-4.7267 0.4993,-20.5 -0.543,-15.64 -0.4281,-20.5 0.4847,-20.5 0.9205,0 1.0336,-9.4532 0.4905,-41 -0.5322,-30.9118 -0.4195,-41 0.4577,-41 0.8798,0 1.1589,-38.5821 1.1449,-158.25 l -0.018,-158.25 43.0432,-0.2606 c 33.5399,-0.2031 43.3412,0.018 44.3927,0.9999 1.107,1.0341 1.2544,8.5828 0.8203,42.0107 -0.4224,32.5347 -0.2733,40.75 0.7398,40.75 1.0195,0 1.1227,12.2798 0.5248,62.5 -0.5908,49.6264 -0.4874,62.5 0.5021,62.5 0.9894,0 1.0928,12.9744 0.5019,63 -0.5903,49.9736 -0.4869,63 0.5,63 0.9869,0 1.0903,13.0264 0.5,63 -0.5885,49.8272 -0.4851,63 0.4946,63 0.6812,0 1.0737,0.7875 0.872,1.75 -0.2239,1.0691 1.542,3.6955 4.5384,6.75 2.6977,2.75 4.3329,4.1 3.6338,3 -0.6991,-1.1 0.8693,0.25 3.4853,3 2.616,2.75 4.1935,4.1 3.5054,3 -0.688,-1.1 0.2083,-0.425 1.9916,1.5 1.7834,1.925 2.9257,2.825 2.5384,2 -0.3873,-0.825 0.5028,-0.15 1.9779,1.5 1.4752,1.65 2.3687,2.325 1.9856,1.5 -0.3831,-0.825 0.2815,-0.375 1.477,1 1.1955,1.375 1.8552,1.8926 1.4661,1.1502 -0.5704,-1.0883 -0.2967,-1.1299 1.4132,-0.2148 1.1664,0.6242 2.1207,1.5957 2.1207,2.1588 0,0.5631 0.45,0.7457 1,0.4058 0.55,-0.3399 1,-0.1149 1,0.5 0,0.6149 0.45,0.8399 1,0.5 0.55,-0.3399 1,-0.1556 1,0.4096 0,0.5652 0.675,0.7686 1.5,0.452 0.825,-0.3166 1.5,-0.092 1.5,0.5 0,0.5916 0.675,0.8166 1.5,0.5 0.825,-0.3166 1.5,-0.092 1.5,0.5 0,0.5916 0.675,0.8166 1.5,0.5 0.825,-0.3166 1.5,-0.069 1.5,0.5505 0,0.7017 0.942,0.8896 2.5,0.4985 1.375,-0.3451 2.5,-0.2411 2.5,0.231 0,0.4721 4.05,0.8584 9,0.8584 4.95,0 9,-0.3863 9,-0.8584 l 0,2e-4 z"
     id="path2966" />
</svg>
